<mxfile host="app.diagrams.net" modified="2021-02-25T19:36:33.057Z" agent="5.0 (Macintosh; Intel Mac OS X 10_15_7) AppleWebKit/537.36 (KHTML, like Gecko) Chrome/88.0.4324.192 Safari/537.36" etag="xyyLe4XG_5NHEh2oSoWX" version="14.4.2" type="github">
  <diagram id="vouQ0EweEViPEyBq-yAl" name="Page-1">
    <mxGraphModel dx="706" dy="804" grid="1" gridSize="10" guides="1" tooltips="1" connect="1" arrows="1" fold="1" page="1" pageScale="1" pageWidth="827" pageHeight="1169" math="0" shadow="0">
      <root>
        <mxCell id="0" />
        <mxCell id="1" parent="0" />
        <mxCell id="C0zyoI56A72YZO5-0QW6-36" style="edgeStyle=orthogonalEdgeStyle;rounded=0;orthogonalLoop=1;jettySize=auto;html=1;" edge="1" parent="1" source="C0zyoI56A72YZO5-0QW6-32" target="C0zyoI56A72YZO5-0QW6-31">
          <mxGeometry relative="1" as="geometry" />
        </mxCell>
        <mxCell id="C0zyoI56A72YZO5-0QW6-32" value="" style="ellipse;whiteSpace=wrap;html=1;" vertex="1" parent="1">
          <mxGeometry x="520" y="160" width="270" height="600" as="geometry" />
        </mxCell>
        <mxCell id="C0zyoI56A72YZO5-0QW6-35" style="edgeStyle=orthogonalEdgeStyle;rounded=0;orthogonalLoop=1;jettySize=auto;html=1;" edge="1" parent="1" source="C0zyoI56A72YZO5-0QW6-31" target="C0zyoI56A72YZO5-0QW6-32">
          <mxGeometry relative="1" as="geometry" />
        </mxCell>
        <mxCell id="C0zyoI56A72YZO5-0QW6-31" value="" style="ellipse;whiteSpace=wrap;html=1;" vertex="1" parent="1">
          <mxGeometry x="50" y="160" width="280" height="600" as="geometry" />
        </mxCell>
        <mxCell id="C0zyoI56A72YZO5-0QW6-33" style="edgeStyle=orthogonalEdgeStyle;rounded=0;orthogonalLoop=1;jettySize=auto;html=1;" edge="1" parent="1" source="C0zyoI56A72YZO5-0QW6-37" target="C0zyoI56A72YZO5-0QW6-31">
          <mxGeometry relative="1" as="geometry">
            <mxPoint x="394" y="90" as="sourcePoint" />
          </mxGeometry>
        </mxCell>
        <mxCell id="C0zyoI56A72YZO5-0QW6-34" style="edgeStyle=orthogonalEdgeStyle;rounded=0;orthogonalLoop=1;jettySize=auto;html=1;" edge="1" parent="1" source="C0zyoI56A72YZO5-0QW6-37" target="C0zyoI56A72YZO5-0QW6-32">
          <mxGeometry relative="1" as="geometry">
            <mxPoint x="434" y="90" as="sourcePoint" />
          </mxGeometry>
        </mxCell>
        <mxCell id="C0zyoI56A72YZO5-0QW6-4" value="Entregador 1" style="shape=umlActor;verticalLabelPosition=bottom;verticalAlign=top;html=1;outlineConnect=0;" vertex="1" parent="1">
          <mxGeometry x="110" y="360" width="30" height="60" as="geometry" />
        </mxCell>
        <mxCell id="C0zyoI56A72YZO5-0QW6-5" value="Fornecedor 1" style="shape=umlActor;verticalLabelPosition=bottom;verticalAlign=top;html=1;outlineConnect=0;" vertex="1" parent="1">
          <mxGeometry x="710" y="350" width="30" height="60" as="geometry" />
        </mxCell>
        <mxCell id="C0zyoI56A72YZO5-0QW6-8" value="&lt;span style=&quot;background-color: rgb(255 , 255 , 255)&quot;&gt;Entregador 2&lt;/span&gt;" style="shape=umlActor;verticalLabelPosition=bottom;verticalAlign=top;html=1;outlineConnect=0;" vertex="1" parent="1">
          <mxGeometry x="238.25" y="440" width="30" height="60" as="geometry" />
        </mxCell>
        <mxCell id="C0zyoI56A72YZO5-0QW6-9" value="Entregador 3" style="shape=umlActor;verticalLabelPosition=bottom;verticalAlign=top;html=1;outlineConnect=0;" vertex="1" parent="1">
          <mxGeometry x="100" y="520" width="30" height="60" as="geometry" />
        </mxCell>
        <mxCell id="C0zyoI56A72YZO5-0QW6-10" value="&lt;span style=&quot;background-color: rgb(255 , 255 , 255)&quot;&gt;Grupo de entregadores 1&lt;/span&gt;" style="verticalLabelPosition=bottom;html=1;fillColor=#282828;strokeColor=none;verticalAlign=top;pointerEvents=1;align=center;shape=mxgraph.cisco_safe.people_places_things_icons.icon1;" vertex="1" parent="1">
          <mxGeometry x="180" y="250" width="46.5" height="50" as="geometry" />
        </mxCell>
        <mxCell id="C0zyoI56A72YZO5-0QW6-12" value="Grupo de fornecedores 2" style="verticalLabelPosition=bottom;html=1;fillColor=#282828;strokeColor=none;verticalAlign=top;pointerEvents=1;align=center;shape=mxgraph.cisco_safe.people_places_things_icons.icon1;" vertex="1" parent="1">
          <mxGeometry x="621.75" y="620" width="46.5" height="50" as="geometry" />
        </mxCell>
        <mxCell id="C0zyoI56A72YZO5-0QW6-13" value="Grupo de entregadores 2" style="verticalLabelPosition=bottom;html=1;fillColor=#282828;strokeColor=none;verticalAlign=top;pointerEvents=1;align=center;shape=mxgraph.cisco_safe.people_places_things_icons.icon1;" vertex="1" parent="1">
          <mxGeometry x="191.75" y="585" width="46.5" height="50" as="geometry" />
        </mxCell>
        <mxCell id="C0zyoI56A72YZO5-0QW6-7" value="&lt;span style=&quot;background-color: rgb(255 , 255 , 255)&quot;&gt;Fornecedor 3&lt;/span&gt;" style="shape=umlActor;verticalLabelPosition=bottom;verticalAlign=top;html=1;outlineConnect=0;" vertex="1" parent="1">
          <mxGeometry x="700" y="520" width="30" height="60" as="geometry" />
        </mxCell>
        <mxCell id="C0zyoI56A72YZO5-0QW6-6" value="&lt;span style=&quot;background-color: rgb(255 , 255 , 255)&quot;&gt;Fornecedor 2&lt;/span&gt;" style="shape=umlActor;verticalLabelPosition=bottom;verticalAlign=top;html=1;outlineConnect=0;" vertex="1" parent="1">
          <mxGeometry x="580" y="440" width="30" height="60" as="geometry" />
        </mxCell>
        <mxCell id="C0zyoI56A72YZO5-0QW6-11" value="&lt;span style=&quot;background-color: rgb(255 , 255 , 255)&quot;&gt;Grupo de fornecedores 1&lt;/span&gt;" style="verticalLabelPosition=bottom;html=1;fillColor=#282828;strokeColor=none;verticalAlign=top;pointerEvents=1;align=center;shape=mxgraph.cisco_safe.people_places_things_icons.icon1;" vertex="1" parent="1">
          <mxGeometry x="643.5" y="230" width="46.5" height="50" as="geometry" />
        </mxCell>
        <mxCell id="C0zyoI56A72YZO5-0QW6-37" value="Clientes" style="verticalLabelPosition=bottom;html=1;fillColor=#282828;strokeColor=none;verticalAlign=top;pointerEvents=1;align=center;shape=mxgraph.cisco_safe.people_places_things_icons.icon9;" vertex="1" parent="1">
          <mxGeometry x="389" y="60" width="50" height="45" as="geometry" />
        </mxCell>
      </root>
    </mxGraphModel>
  </diagram>
</mxfile>
